<?xml version="1.0" encoding="UTF-8"?>
<svg width="96" height="96" viewBox="0 0 96 96" fill="none" xmlns="http://www.w3.org/2000/svg">
  <circle cx="48" cy="48" r="48" fill="#F4F4F4"/>
  <path d="M48 24C39.1634 24 32 31.1634 32 40V48H28C26.3431 48 25 49.3431 25 51V69C25 70.6569 26.3431 72 28 72H68C69.6569 72 71 70.6569 71 69V51C71 49.3431 69.6569 48 68 48H64V40C64 31.1634 56.8366 24 48 24ZM36 40C36 33.3726 41.3726 28 48 28C54.6274 28 60 33.3726 60 40V48H36V40ZM68 69H28V51H68V69Z" fill="#B0B0B0"/>
  <rect x="44" y="56" width="8" height="8" rx="4" fill="#B0B0B0"/>
</svg>
